<svg version="1.1" id="Layer_1" xmlns="http://www.w3.org/2000/svg" xmlns:xlink="http://www.w3.org/1999/xlink" x="0px" y="0px"
	 width="100%" viewBox="0 0 76 86" enable-background="new 0 0 76 86" xml:space="preserve">
<path fill="#F8F9F7" opacity="1.000000" stroke="none" 
	d="
M40.000000,87.000000 
	C26.666670,87.000000 13.833338,87.000000 1.000005,87.000000 
	C1.000003,58.333340 1.000003,29.666681 1.000002,1.000017 
	C26.333321,1.000011 51.666641,1.000011 76.999969,1.000006 
	C76.999985,29.666649 76.999985,58.333298 76.999992,86.999969 
	C64.833336,87.000000 52.666668,87.000000 40.000000,87.000000 
M55.504028,45.113186 
	C55.357029,46.085487 55.210030,47.057789 54.306492,48.383957 
	C50.658875,48.472725 46.989380,48.357151 43.373692,48.744194 
	C41.780014,48.914787 40.295654,50.106541 38.761662,50.834679 
	C40.374584,51.494598 41.963417,52.642494 43.604912,52.723518 
	C48.658138,52.972946 53.731499,52.814434 58.622749,52.814434 
	C58.622749,60.228428 58.622749,66.779823 58.622749,73.390221 
	C57.607796,73.527473 56.883282,73.456596 56.335922,73.734581 
	C55.192245,74.315376 54.142052,75.080254 53.053455,75.769508 
	C54.136196,76.471199 55.178513,77.689392 56.309250,77.777901 
	C59.727264,78.045441 63.179600,77.874573 66.887009,77.874573 
	C66.887009,67.867760 66.887009,58.501923 66.887009,49.609188 
	C64.544258,48.623482 62.651333,47.827034 61.058945,46.132229 
	C60.970505,39.530094 60.944817,32.925823 60.720127,26.328323 
	C60.689461,25.427946 59.772144,23.964533 59.072929,23.839718 
	C58.306778,23.702953 56.751575,24.643345 56.516701,25.412504 
	C54.915340,30.656673 53.400368,35.944523 52.305233,41.309666 
	C52.113258,42.250168 54.031857,43.621483 55.504028,45.113186 
M23.307936,62.810768 
	C22.290525,61.467796 20.487856,60.176540 20.395388,58.772648 
	C20.046377,53.473732 20.398594,48.131687 20.160255,42.820507 
	C20.091740,41.293694 18.919689,39.816399 18.253605,38.316402 
	C17.374519,39.696491 15.788342,41.050301 15.735902,42.461117 
	C15.476651,49.435917 15.594928,56.425980 15.640334,63.410267 
	C15.658141,66.149315 16.896744,67.628311 19.881117,67.815117 
	C21.251518,67.900894 22.555714,69.044342 23.889931,69.708176 
	C23.076342,71.050850 22.179556,72.351845 21.478769,73.751015 
	C21.020901,74.665192 20.847294,75.721733 20.546356,76.714508 
	C21.519737,76.943260 22.487991,77.334457 23.467619,77.365387 
	C25.252810,77.421745 27.045933,77.286034 28.833406,77.187813 
	C29.837425,77.132637 30.836750,76.992065 31.838192,76.889969 
	C31.574858,75.882385 31.438099,74.818268 31.019073,73.880234 
	C30.360315,72.405518 29.511417,71.015747 28.743031,69.590004 
	C30.081137,68.967911 31.369600,67.989349 32.767235,67.794701 
	C36.127190,67.326775 37.302261,65.998451 35.594643,61.882656 
	C36.585987,62.602390 38.293789,63.206356 38.432350,64.063889 
	C38.824760,66.492416 38.570999,69.024742 38.578712,71.516159 
	C38.598461,77.894180 39.616280,78.831245 45.824581,77.813133 
	C46.762512,77.659309 47.819809,76.878174 48.326256,76.074776 
	C48.547729,75.723434 47.495533,74.599030 47.066788,73.801445 
	C46.302872,72.380341 45.102661,70.995377 44.928989,69.497437 
	C44.586918,66.546951 44.789150,63.529083 44.827251,60.539867 
	C44.877071,56.630810 42.919426,54.858273 39.082264,54.595528 
	C31.950565,54.107197 31.236515,52.903698 33.370869,46.587399 
	C36.865818,46.587399 40.181953,46.872021 43.402367,46.441174 
	C44.616039,46.278797 45.608070,44.459740 46.701145,43.395912 
	C45.622749,42.339916 44.724644,40.805504 43.431885,40.318336 
	C39.671883,38.901394 35.660561,38.143608 31.918716,36.687962 
	C25.648098,34.248581 22.183519,36.349625 22.144075,42.985672 
	C22.119394,47.137966 21.935925,51.305347 22.235357,55.436123 
	C22.366352,57.243240 23.526546,58.975750 24.158504,61.815533 
	C24.179190,62.173164 24.199877,62.530792 23.307936,62.810768 
M22.208311,26.805090 
	C23.520052,29.057137 24.364807,32.001076 26.310289,33.314167 
	C27.574190,34.167229 31.069757,33.295376 32.415642,32.000874 
	C33.763107,30.704849 34.640312,27.533012 33.974426,25.894089 
	C33.203510,23.996647 30.382078,21.557531 28.708410,21.738297 
	C26.450445,21.982166 24.438179,24.500912 22.208311,26.805090 
z"/>
<path fill="#49648B" opacity="1.000000" stroke="none" 
	d="
M24.219378,60.742142 
	C23.526546,58.975750 22.366352,57.243240 22.235357,55.436123 
	C21.935925,51.305347 22.119394,47.137966 22.144075,42.985672 
	C22.183519,36.349625 25.648098,34.248581 31.918716,36.687962 
	C35.660561,38.143608 39.671883,38.901394 43.431885,40.318336 
	C44.724644,40.805504 45.622749,42.339916 46.701145,43.395912 
	C45.608070,44.459740 44.616039,46.278797 43.402367,46.441174 
	C40.181953,46.872021 36.865818,46.587399 33.370869,46.587399 
	C31.236515,52.903698 31.950565,54.107197 39.082264,54.595528 
	C42.919426,54.858273 44.877071,56.630810 44.827251,60.539867 
	C44.789150,63.529083 44.586918,66.546951 44.928989,69.497437 
	C45.102661,70.995377 46.302872,72.380341 47.066788,73.801445 
	C47.495533,74.599030 48.547729,75.723434 48.326256,76.074776 
	C47.819809,76.878174 46.762512,77.659309 45.824581,77.813133 
	C39.616280,78.831245 38.598461,77.894180 38.578712,71.516159 
	C38.570999,69.024742 38.824760,66.492416 38.432350,64.063889 
	C38.293789,63.206356 36.585987,62.602390 35.529129,62.394646 
	C35.463615,62.906639 35.506828,62.946938 35.608002,62.477177 
	C31.879246,61.585659 28.049311,61.163902 24.219378,60.742142 
z"/>
<path fill="#446088" opacity="1.000000" stroke="none" 
	d="
M60.758408,47.030590 
	C62.651333,47.827034 64.544258,48.623482 66.887009,49.609188 
	C66.887009,58.501923 66.887009,67.867760 66.887009,77.874573 
	C63.179600,77.874573 59.727264,78.045441 56.309250,77.777901 
	C55.178513,77.689392 54.136196,76.471199 53.053459,75.769516 
	C54.142052,75.080254 55.192245,74.315376 56.335922,73.734581 
	C56.883282,73.456596 57.607796,73.527473 58.622749,73.390221 
	C58.622749,66.779823 58.622749,60.228428 58.622749,52.814434 
	C53.731499,52.814434 48.658138,52.972946 43.604912,52.723518 
	C41.963417,52.642494 40.374584,51.494598 38.761662,50.834679 
	C40.295654,50.106541 41.780014,48.914787 43.373692,48.744194 
	C46.989380,48.357151 50.658875,48.472725 54.998932,48.208115 
	C56.108479,48.000618 56.525585,47.968964 57.274071,47.926579 
	C58.656441,47.620762 59.707424,47.325676 60.758408,47.030590 
z"/>
<path fill="#5C7496" opacity="1.000000" stroke="none" 
	d="
M35.506828,62.946938 
	C35.506828,62.946938 35.463615,62.906639 35.446178,62.882858 
	C37.302261,65.998451 36.127190,67.326775 32.767235,67.794701 
	C31.369600,67.989349 30.081137,68.967911 28.743031,69.590004 
	C29.511417,71.015747 30.360315,72.405518 31.019073,73.880234 
	C31.438099,74.818268 31.574858,75.882385 31.838192,76.889969 
	C30.836750,76.992065 29.837425,77.132637 28.833406,77.187813 
	C27.045933,77.286034 25.252810,77.421745 23.467619,77.365387 
	C22.487991,77.334457 21.519737,76.943260 20.546356,76.714508 
	C20.847294,75.721733 21.020901,74.665192 21.478769,73.751015 
	C22.179556,72.351845 23.076342,71.050850 23.889931,69.708176 
	C22.555714,69.044342 21.251518,67.900894 19.881117,67.815117 
	C16.896744,67.628311 15.658141,66.149315 15.640334,63.410267 
	C15.594928,56.425980 15.476651,49.435917 15.735902,42.461117 
	C15.788342,41.050301 17.374519,39.696491 18.253605,38.316402 
	C18.919689,39.816399 20.091740,41.293694 20.160255,42.820507 
	C20.398594,48.131687 20.046377,53.473732 20.395388,58.772648 
	C20.487856,60.176540 22.290525,61.467796 24.113277,62.994141 
	C28.448023,63.100655 31.977425,63.023796 35.506828,62.946938 
z"/>
<path fill="#536D91" opacity="1.000000" stroke="none" 
	d="
M60.908676,46.581409 
	C59.707424,47.325676 58.656441,47.620762 57.292801,47.572128 
	C57.046803,45.898544 57.113461,44.568684 57.241344,42.017372 
	C55.981720,43.561005 55.478718,44.177418 54.975716,44.793831 
	C54.031857,43.621483 52.113258,42.250168 52.305233,41.309666 
	C53.400368,35.944523 54.915340,30.656673 56.516701,25.412504 
	C56.751575,24.643345 58.306778,23.702953 59.072929,23.839718 
	C59.772144,23.964533 60.689461,25.427946 60.720127,26.328323 
	C60.944817,32.925823 60.970505,39.530094 60.908676,46.581409 
M56.415676,40.693382 
	C56.634716,40.988998 56.853756,41.284615 57.072796,41.580231 
	C57.260887,41.399895 57.448975,41.219555 57.637066,41.039219 
	C57.351917,40.806335 57.066769,40.573456 56.415676,40.693382 
z"/>
<path fill="#4D678D" opacity="1.000000" stroke="none" 
	d="
M22.264395,26.424274 
	C24.438179,24.500912 26.450445,21.982166 28.708410,21.738297 
	C30.382078,21.557531 33.203510,23.996647 33.974426,25.894089 
	C34.640312,27.533012 33.763107,30.704849 32.415642,32.000874 
	C31.069757,33.295376 27.574190,34.167229 26.310289,33.314167 
	C24.364807,32.001076 23.520052,29.057137 22.264395,26.424274 
z"/>
<path fill="#BAC3D1" opacity="1.000000" stroke="none" 
	d="
M35.608002,62.477177 
	C31.977425,63.023796 28.448023,63.100655 24.569592,63.032967 
	C24.199877,62.530792 24.179190,62.173164 24.188942,61.278839 
	C28.049311,61.163902 31.879246,61.585659 35.608002,62.477177 
z"/>
<path fill="#687E9E" opacity="1.000000" stroke="none" 
	d="
M55.239872,44.953506 
	C55.478718,44.177418 55.981720,43.561005 57.241344,42.017372 
	C57.113461,44.568684 57.046803,45.898544 56.961414,47.582855 
	C56.525585,47.968964 56.108479,48.000618 55.377205,48.031181 
	C55.210030,47.057789 55.357029,46.085487 55.239872,44.953506 
z"/>
<path fill="#687E9E" opacity="1.000000" stroke="none" 
	d="
M56.598648,40.516979 
	C57.066769,40.573456 57.351917,40.806335 57.637066,41.039219 
	C57.448975,41.219555 57.260887,41.399895 57.072796,41.580231 
	C56.853756,41.284615 56.634716,40.988998 56.598648,40.516979 
z"/>
</svg>