<svg version="1.1" id="Layer_1" xmlns="http://www.w3.org/2000/svg" xmlns:xlink="http://www.w3.org/1999/xlink" x="0px" y="0px"
	 width="100%" viewBox="0 0 101 97" enable-background="new 0 0 101 97" xml:space="preserve">
<path fill="#FBFBF9" opacity="1.000000" stroke="none" 
	d="
M70.000000,98.000000 
	C46.666668,98.000000 23.833334,98.000000 1.000000,98.000000 
	C1.000000,65.666664 1.000000,33.333332 1.000000,1.000000 
	C34.666668,1.000000 68.333336,1.000000 102.000000,1.000000 
	C102.000000,33.333332 102.000000,65.666664 102.000000,98.000000 
	C91.500000,98.000000 81.000000,98.000000 70.000000,98.000000 
M38.534081,21.265438 
	C37.705173,21.441772 36.876263,21.618109 35.355713,21.726389 
	C34.903648,21.811907 34.451580,21.897427 33.476280,21.467459 
	C31.575457,21.998259 28.645456,18.743053 27.707104,23.953541 
	C27.796953,36.970272 27.886803,49.987007 27.866159,63.621876 
	C27.934389,64.034454 28.002619,64.447037 27.693836,65.421585 
	C25.466499,67.480675 25.915119,72.748215 28.496252,74.843285 
	C32.283539,71.960777 32.283539,71.960777 31.698761,64.137001 
	C32.505104,64.379250 33.311451,64.621506 34.550030,64.951263 
	C34.550030,64.951263 34.980549,65.047005 35.028885,65.793007 
	C35.394951,67.887604 35.761017,69.982193 36.132572,72.778328 
	C36.666603,73.185753 37.200638,73.593170 37.734673,74.000595 
	C38.169010,73.332558 38.603348,72.664528 38.991043,71.994019 
	C38.991043,71.994019 38.999390,72.039970 39.608040,71.673805 
	C39.385475,70.437675 39.162907,69.201538 38.522675,67.948341 
	C38.522675,67.948341 38.104656,67.947952 37.985313,67.329620 
	C37.663746,66.560478 37.342178,65.791336 37.711555,64.966316 
	C38.168392,64.906311 38.625229,64.846306 39.681713,64.918213 
	C40.118313,64.604752 40.554913,64.291298 41.701637,63.497181 
	C41.815418,50.397007 41.945805,37.296902 41.996754,24.196486 
	C41.999466,23.499552 41.331696,22.800011 40.787563,21.576813 
	C40.255039,21.535831 39.722519,21.494850 38.534081,21.265438 
M49.193714,21.063871 
	C48.121521,21.703905 47.049332,22.343939 45.845802,23.915766 
	C45.913624,36.941406 45.981445,49.967049 45.946293,63.731190 
	C46.941895,64.101418 47.937492,64.471642 49.641891,64.965668 
	C50.119415,64.925667 50.596939,64.885666 51.429420,65.508881 
	C54.329647,70.097054 53.097313,73.741798 49.020733,76.924461 
	C47.470356,78.134872 45.999550,79.596207 44.933567,81.230827 
	C44.082802,82.535400 43.901062,84.276276 43.422352,85.823479 
	C44.876301,85.355408 46.650265,85.260834 47.719967,84.344307 
	C50.223370,82.199364 52.221806,79.455635 54.768085,77.374481 
	C55.896519,76.452171 58.235554,75.756592 59.378895,76.305061 
	C68.679237,80.766479 78.913185,75.662071 82.072319,65.896828 
	C82.231155,65.131226 82.389999,64.365631 82.574760,62.952339 
	C82.589890,62.087994 82.605019,61.223644 82.867966,59.392178 
	C82.886734,47.992001 82.978638,36.590828 82.823257,25.193022 
	C82.805649,23.900925 81.396713,22.627792 80.193367,21.344072 
	C79.900116,21.345875 79.607246,21.336075 78.400040,21.102571 
	C77.156586,21.179211 75.913132,21.255850 74.234444,21.369318 
	C73.943436,21.385248 73.652328,21.387428 72.769127,21.183681 
	C72.519913,21.790007 72.270699,22.396332 72.006660,23.939354 
	C71.973648,30.939304 71.940643,37.939255 71.259476,44.978134 
	C70.614655,44.929798 69.969841,44.881466 69.188019,43.927284 
	C69.165726,37.497734 69.119057,31.068119 69.135757,24.638668 
	C69.140884,22.665985 69.086441,20.890575 65.419113,21.125114 
	C64.494064,21.198774 63.569019,21.272434 61.879971,21.365589 
	C61.154163,22.789284 59.862366,24.189440 59.802006,25.640810 
	C59.560028,31.459023 59.823074,37.297424 59.619633,43.118580 
	C59.562374,44.756859 58.550648,46.361782 57.177402,47.796844 
	C56.763943,46.322754 56.030308,44.856590 55.993572,43.373169 
	C55.849991,37.575146 56.039204,31.767765 55.838360,25.973093 
	C55.791328,24.616156 54.700890,23.295382 53.647522,21.593159 
	C52.889549,21.517056 52.131580,21.440950 50.684242,21.092140 
	C50.438557,21.079308 50.192875,21.066473 49.193714,21.063871 
M17.206240,46.499950 
	C17.206488,53.638035 17.073431,60.781006 17.334995,67.909500 
	C17.379869,69.132553 19.106695,70.293892 20.056551,71.483734 
	C20.866470,70.315506 22.367620,69.155182 22.381088,67.977844 
	C22.544369,53.703568 22.558331,39.425865 22.372448,25.152164 
	C22.355394,23.842472 20.697172,22.554150 19.801035,21.255903 
	C18.932650,22.531181 17.361618,23.780649 17.313667,25.086063 
	C17.064009,31.882854 17.202042,38.693886 17.206240,46.499950 
M42.040890,70.428741 
	C43.097076,72.011383 44.153263,73.594025 45.629848,75.806602 
	C48.275177,70.287552 48.287811,66.905273 46.115105,66.207230 
	C43.251137,65.287094 42.447529,67.332512 42.040890,70.428741 
z"/>
<path fill="#479692" opacity="1.000000" stroke="none" 
	d="
M71.907623,44.939205 
	C71.940643,37.939255 71.973648,30.939304 72.253922,23.339621 
	C72.787827,22.285210 73.074478,21.830532 73.361122,21.375854 
	C73.652328,21.387428 73.943436,21.385248 74.630692,21.712151 
	C75.322350,29.115885 75.610680,36.177097 75.918076,43.237476 
	C75.995506,45.016037 76.133919,46.791943 76.244301,48.569073 
	C76.793144,48.539753 77.341980,48.510433 77.890823,48.481113 
	C77.890823,41.802631 77.768372,35.120705 77.956146,28.447504 
	C78.023361,26.059042 78.840118,23.691669 79.314766,21.314672 
	C79.607246,21.336075 79.900116,21.345875 80.514832,21.779449 
	C80.953957,33.124996 81.009216,44.036549 81.250839,54.943977 
	C81.291031,56.758305 82.143204,58.554646 82.620148,60.359299 
	C82.605019,61.223644 82.589890,62.087994 82.282120,63.421219 
	C81.826218,64.653069 81.662949,65.416046 81.499680,66.179024 
	C78.913185,75.662071 68.679237,80.766479 59.378895,76.305061 
	C58.235554,75.756592 55.896519,76.452171 54.768085,77.374481 
	C52.221806,79.455635 50.223370,82.199364 47.719967,84.344307 
	C46.650265,85.260834 44.876301,85.355408 43.422356,85.823486 
	C43.901062,84.276276 44.082802,82.535400 44.933567,81.230827 
	C45.999550,79.596207 47.470356,78.134872 49.020733,76.924461 
	C53.097313,73.741798 54.329647,70.097054 51.252289,64.721252 
	C51.015354,50.254395 50.955544,36.575161 50.984123,22.643412 
	C51.172878,22.048880 51.273243,21.706863 51.373604,21.364845 
	C52.131580,21.440950 52.889549,21.517056 53.845749,22.247200 
	C54.043980,31.867119 54.043980,40.833000 54.043980,51.336460 
	C56.189465,49.506451 57.083088,48.744228 57.976707,47.982002 
	C58.550648,46.361782 59.562374,44.756859 59.619633,43.118580 
	C59.823074,37.297424 59.560028,31.459023 59.802006,25.640810 
	C59.862366,24.189440 61.154163,22.789284 62.383354,21.786186 
	C63.137104,29.808346 63.387466,37.409908 63.637829,45.011471 
	C64.130936,45.002144 64.624039,44.992817 65.117149,44.983494 
	C65.117149,40.976467 64.959663,36.961468 65.162064,32.964695 
	C65.358940,29.076969 65.924530,25.207918 66.328224,21.330666 
	C69.086441,20.890575 69.140884,22.665985 69.135757,24.638668 
	C69.119057,31.068119 69.165726,37.497734 69.291672,44.714321 
	C70.232750,45.313972 71.070190,45.126587 71.907623,44.939205 
M77.763710,61.497238 
	C76.997383,54.571571 74.117310,50.876633 68.818497,50.021179 
	C62.428997,48.989632 56.860451,52.970573 55.762699,59.354729 
	C54.584778,66.205132 58.669254,72.205421 65.275543,73.329559 
	C71.584877,74.403152 76.567314,69.996086 77.763710,61.497238 
z"/>
<path fill="#61A5A2" opacity="1.000000" stroke="none" 
	d="
M17.205681,45.999954 
	C17.202042,38.693886 17.064009,31.882854 17.313667,25.086063 
	C17.361618,23.780649 18.932650,22.531181 19.801033,21.255903 
	C20.697172,22.554150 22.355394,23.842472 22.372448,25.152164 
	C22.558331,39.425865 22.544369,53.703568 22.381088,67.977844 
	C22.367620,69.155182 20.866470,70.315506 20.056549,71.483734 
	C19.106695,70.293892 17.379869,69.132553 17.334995,67.909500 
	C17.073431,60.781006 17.206488,53.638035 17.205681,45.999954 
z"/>
<path fill="#328B87" opacity="1.000000" stroke="none" 
	d="
M46.049267,62.992691 
	C45.981445,49.967049 45.913624,36.941406 46.295219,23.435520 
	C47.754505,23.053780 48.764370,23.152287 49.802803,23.685198 
	C49.530300,37.069977 49.229229,50.020355 48.569229,62.976166 
	C47.489952,62.985294 46.769611,62.988991 46.049267,62.992691 
z"/>
<path fill="#9DC6C3" opacity="1.000000" stroke="none" 
	d="
M27.763115,23.020510 
	C28.645456,18.743053 31.575457,21.998259 33.746124,22.195518 
	C34.049908,36.903637 34.083851,50.883694 34.117794,64.863754 
	C33.311451,64.621506 32.505104,64.379250 31.148300,64.106163 
	C30.597837,64.075325 30.129631,64.094810 30.094036,63.834999 
	C30.069344,63.400703 30.080246,63.226219 30.385052,62.749016 
	C30.783108,50.144989 30.881144,37.843616 30.996893,25.542408 
	C31.018488,23.247240 30.370564,21.900795 27.763115,23.020510 
z"/>
<path fill="#75B0AD" opacity="1.000000" stroke="none" 
	d="
M39.082066,64.786301 
	C38.625229,64.846306 38.168392,64.906311 37.075264,64.924103 
	C36.245815,64.832382 36.052662,64.782883 35.895966,64.282753 
	C35.998299,50.197819 36.064171,36.563507 36.492226,22.947678 
	C37.582405,22.989454 38.310402,23.012745 39.041733,23.502420 
	C39.110947,36.965954 39.176834,49.963100 39.186653,63.261543 
	C39.114410,63.970657 39.098236,64.378479 39.082066,64.786301 
z"/>
<path fill="#328B87" opacity="1.000000" stroke="none" 
	d="
M39.242718,62.960247 
	C39.176834,49.963100 39.110947,36.965954 39.052666,23.519154 
	C39.060272,23.069500 39.100914,23.075232 39.381119,23.042681 
	C40.099567,22.707314 40.537811,22.404497 40.976055,22.101683 
	C41.331696,22.800011 41.999466,23.499552 41.996754,24.196486 
	C41.945805,37.296902 41.815418,50.397007 41.204849,63.508255 
	C40.219616,63.332966 39.731167,63.146606 39.242718,62.960247 
z"/>
<path fill="#3D918D" opacity="1.000000" stroke="none" 
	d="
M27.735109,23.487026 
	C30.370564,21.900795 31.018488,23.247240 30.996893,25.542408 
	C30.881144,37.843616 30.783108,50.144989 30.032051,62.731522 
	C28.915651,63.012405 28.446152,63.008072 27.976652,63.003738 
	C27.886803,49.987007 27.796953,36.970272 27.735109,23.487026 
z"/>
<path fill="#328B87" opacity="1.000000" stroke="none" 
	d="
M36.130043,22.929192 
	C36.064171,36.563507 35.998299,50.197819 35.669945,64.343529 
	C35.407463,64.854919 34.980549,65.047005 34.980549,65.047005 
	C34.980549,65.047005 34.550030,64.951263 34.333912,64.907509 
	C34.083851,50.883694 34.049908,36.903637 34.007740,22.453262 
	C34.451580,21.897427 34.903648,21.811907 35.664364,22.048542 
	C36.025356,22.556860 36.077702,22.743025 36.130043,22.929192 
z"/>
<path fill="#BAD7D4" opacity="1.000000" stroke="none" 
	d="
M82.744057,59.875740 
	C82.143204,58.554646 81.291031,56.758305 81.250839,54.943977 
	C81.009216,44.036549 80.953957,33.124996 80.734612,21.780346 
	C81.396713,22.627792 82.805649,23.900925 82.823257,25.193022 
	C82.978638,36.590828 82.886734,47.992001 82.744057,59.875740 
z"/>
<path fill="#7FB5B2" opacity="1.000000" stroke="none" 
	d="
M48.928154,62.970734 
	C49.229229,50.020355 49.530300,37.069977 49.910042,23.569347 
	C49.988705,23.019096 50.208431,22.792379 50.379448,22.823641 
	C50.550461,22.854902 50.895733,22.895926 50.895733,22.895926 
	C50.955544,36.575161 51.015354,50.254395 51.074814,64.389648 
	C50.596939,64.885666 50.119415,64.925667 49.309517,64.592560 
	C48.960815,63.803207 48.944485,63.386971 48.928154,62.970734 
z"/>
<path fill="#BAD7D4" opacity="1.000000" stroke="none" 
	d="
M78.857407,21.208622 
	C78.840118,23.691669 78.023361,26.059042 77.956146,28.447504 
	C77.768372,35.120705 77.890823,41.802631 77.890823,48.481113 
	C77.341980,48.510433 76.793144,48.539753 76.244301,48.569073 
	C76.133919,46.791943 75.995506,45.016037 75.918076,43.237476 
	C75.610680,36.177097 75.322350,29.115885 74.848312,21.693735 
	C75.913132,21.255850 77.156586,21.179211 78.857407,21.208622 
z"/>
<path fill="#C2DAD8" opacity="1.000000" stroke="none" 
	d="
M57.577057,47.889427 
	C57.083088,48.744228 56.189465,49.506451 54.043980,51.336460 
	C54.043980,40.833000 54.043980,31.867119 54.067238,22.429604 
	C54.700890,23.295382 55.791328,24.616156 55.838360,25.973093 
	C56.039204,31.767765 55.849991,37.575146 55.993572,43.373169 
	C56.030308,44.856590 56.763943,46.322754 57.577057,47.889427 
z"/>
<path fill="#BAD7D4" opacity="1.000000" stroke="none" 
	d="
M65.873672,21.227890 
	C65.924530,25.207918 65.358940,29.076969 65.162064,32.964695 
	C64.959663,36.961468 65.117149,40.976467 65.117149,44.983494 
	C64.624039,44.992817 64.130936,45.002144 63.637829,45.011471 
	C63.387466,37.409908 63.137104,29.808346 62.765358,21.776440 
	C63.569019,21.272434 64.494064,21.198774 65.873672,21.227890 
z"/>
<path fill="#E4EEEC" opacity="1.000000" stroke="none" 
	d="
M30.129631,64.094810 
	C30.129631,64.094810 30.597837,64.075325 30.827137,64.126282 
	C32.283539,71.960777 32.283539,71.960777 28.496252,74.843285 
	C25.915119,72.748215 25.466499,67.480675 28.184181,65.176987 
	C29.159561,64.653191 29.644596,64.374001 30.129631,64.094810 
z"/>
<path fill="#A9CDCA" opacity="1.000000" stroke="none" 
	d="
M42.047779,70.026978 
	C42.447529,67.332512 43.251137,65.287094 46.115105,66.207230 
	C48.287811,66.905273 48.275177,70.287552 45.629848,75.806602 
	C44.153263,73.594025 43.097076,72.011383 42.047779,70.026978 
z"/>
<path fill="#C2DAD8" opacity="1.000000" stroke="none" 
	d="
M35.004715,65.420006 
	C34.980549,65.047005 35.407463,64.854919 35.633484,64.794144 
	C36.052662,64.782883 36.245815,64.832382 36.729790,64.952042 
	C37.342178,65.791336 37.663746,66.560478 37.865456,67.959915 
	C37.469498,69.750336 37.193398,70.910461 36.719727,72.069809 
	C36.522156,72.069038 36.127083,72.076790 36.127083,72.076790 
	C35.761017,69.982193 35.394951,67.887604 35.004715,65.420006 
z"/>
<path fill="#7FB5B2" opacity="1.000000" stroke="none" 
	d="
M49.881470,23.134945 
	C48.764370,23.152287 47.754505,23.053780 46.360889,22.969622 
	C47.049332,22.343939 48.121521,21.703905 49.624565,21.347694 
	C50.106422,22.018471 50.157429,22.405424 50.208431,22.792379 
	C50.208431,22.792379 49.988705,23.019096 49.881470,23.134945 
z"/>
<path fill="#E4EEEC" opacity="1.000000" stroke="none" 
	d="
M36.917301,72.070587 
	C37.193398,70.910461 37.469498,69.750336 37.925125,68.269081 
	C38.104656,67.947952 38.522675,67.948341 38.703964,68.364647 
	C38.923298,69.867294 38.961342,70.953629 38.999390,72.039970 
	C38.999390,72.039970 38.991043,71.994019 38.660835,71.988007 
	C37.859520,72.011520 37.388409,72.041054 36.917301,72.070587 
z"/>
<path fill="#9DC6C3" opacity="1.000000" stroke="none" 
	d="
M36.719727,72.069809 
	C37.388409,72.041054 37.859520,72.011520 38.684158,71.989243 
	C38.603348,72.664528 38.169010,73.332558 37.734673,74.000595 
	C37.200638,73.593170 36.666603,73.185753 36.129829,72.427559 
	C36.127083,72.076790 36.522156,72.069038 36.719727,72.069809 
z"/>
<path fill="#479692" opacity="1.000000" stroke="none" 
	d="
M48.569225,62.976166 
	C48.944485,63.386971 48.960815,63.803207 48.955120,64.530655 
	C47.937492,64.471642 46.941895,64.101418 45.997780,63.361938 
	C46.769611,62.988991 47.489952,62.985294 48.569225,62.976166 
z"/>
<path fill="#9DC6C3" opacity="1.000000" stroke="none" 
	d="
M36.492226,22.947678 
	C36.077702,22.743025 36.025356,22.556860 36.010185,22.082569 
	C36.876263,21.618109 37.705173,21.441772 38.837723,21.628517 
	C39.127880,22.352806 39.114395,22.714020 39.100914,23.075232 
	C39.100914,23.075232 39.060272,23.069500 39.049339,23.052769 
	C38.310402,23.012745 37.582405,22.989454 36.492226,22.947678 
z"/>
<path fill="#3D918D" opacity="1.000000" stroke="none" 
	d="
M39.186653,63.261543 
	C39.731167,63.146606 40.219616,63.332966 40.849792,63.748585 
	C40.554913,64.291298 40.118313,64.604752 39.381889,64.852257 
	C39.098236,64.378479 39.114410,63.970657 39.186653,63.261543 
z"/>
<path fill="#519B98" opacity="1.000000" stroke="none" 
	d="
M30.094036,63.834999 
	C29.644596,64.374001 29.159561,64.653191 28.372686,64.895996 
	C28.002619,64.447037 27.934389,64.034454 27.921406,63.312805 
	C28.446152,63.008072 28.915651,63.012405 29.738152,63.034233 
	C30.080246,63.226219 30.069344,63.400703 30.094036,63.834999 
z"/>
<path fill="#BAD7D4" opacity="1.000000" stroke="none" 
	d="
M81.785995,66.037926 
	C81.662949,65.416046 81.826218,64.653069 82.269165,63.745064 
	C82.389999,64.365631 82.231155,65.131226 81.785995,66.037926 
z"/>
<path fill="#61A5A2" opacity="1.000000" stroke="none" 
	d="
M39.381119,23.042681 
	C39.114395,22.714020 39.127880,22.352806 39.165680,21.722733 
	C39.722519,21.494850 40.255039,21.535831 40.881809,21.839249 
	C40.537811,22.404497 40.099567,22.707314 39.381119,23.042681 
z"/>
<path fill="#9DC6C3" opacity="1.000000" stroke="none" 
	d="
M39.303711,71.856888 
	C38.961342,70.953629 38.923298,69.867294 38.912796,68.373184 
	C39.162907,69.201538 39.385475,70.437675 39.303711,71.856888 
z"/>
<path fill="#BAD7D4" opacity="1.000000" stroke="none" 
	d="
M73.065125,21.279770 
	C73.074478,21.830532 72.787827,22.285210 72.261337,22.871273 
	C72.270699,22.396332 72.519913,21.790007 73.065125,21.279770 
z"/>
<path fill="#BAD7D4" opacity="1.000000" stroke="none" 
	d="
M71.583549,44.958672 
	C71.070190,45.126587 70.232750,45.313972 69.360168,45.167244 
	C69.969841,44.881466 70.614655,44.929798 71.583549,44.958672 
z"/>
<path fill="#C2DAD8" opacity="1.000000" stroke="none" 
	d="
M50.379448,22.823641 
	C50.157429,22.405424 50.106422,22.018471 50.001305,21.342575 
	C50.192875,21.066473 50.438557,21.079308 51.028923,21.228493 
	C51.273243,21.706863 51.172878,22.048880 50.984123,22.643412 
	C50.895733,22.895926 50.550461,22.854902 50.379448,22.823641 
z"/>
<path fill="#F3F6F4" opacity="1.000000" stroke="none" 
	d="
M77.758812,61.894714 
	C76.567314,69.996086 71.584877,74.403152 65.275543,73.329559 
	C58.669254,72.205421 54.584778,66.205132 55.762699,59.354729 
	C56.860451,52.970573 62.428997,48.989632 68.818497,50.021179 
	C74.117310,50.876633 76.997383,54.571571 77.758812,61.894714 
z"/>
</svg>