<svg version="1.1" id="Layer_1" xmlns="http://www.w3.org/2000/svg" xmlns:xlink="http://www.w3.org/1999/xlink" x="0px" y="0px"
	 width="100%" viewBox="0 0 96 80" enable-background="new 0 0 96 80" xml:space="preserve">
<path fill="#000000" opacity="1.000000" stroke="none" 
	d="
M73.024948,75.043510 
	C73.553169,77.978333 71.374161,79.154282 69.236473,80.755356 
	C60.645767,81.000000 52.291534,81.000000 43.468651,81.000000 
	C42.465324,80.608597 41.950809,80.185303 41.392033,79.832024 
	C39.958103,78.925407 38.263153,78.020454 39.370762,75.975189 
	C40.313374,74.234596 41.928734,74.947456 43.356785,75.442757 
	C43.985550,75.660843 44.646816,75.810249 45.241367,76.098137 
	C52.651588,79.686325 60.001209,79.400406 67.367661,75.913811 
	C68.843971,75.215050 70.410126,74.492188 72.581848,74.944809 
	C72.998962,75.006317 73.024948,75.043510 73.024948,75.043510 
z"/>
<path fill="#000000" opacity="1.000000" stroke="none" 
	d="
M48.064644,36.861801 
	C52.721973,34.734497 57.238743,35.801060 61.681973,35.779121 
	C63.660820,35.769348 65.002846,37.172115 64.935379,38.916187 
	C64.784363,42.820351 66.884293,45.828514 68.197006,49.199718 
	C71.133537,56.741100 66.594795,63.324631 58.680489,63.361431 
	C56.848324,63.369949 55.015991,63.360176 53.183823,63.346771 
	C45.357277,63.289509 40.514557,57.106407 43.467899,49.702976 
	C45.119446,45.562881 46.457233,41.391056 48.064644,36.861801 
M56.270584,39.390236 
	C55.777100,39.397739 55.283417,39.398693 54.790173,39.413960 
	C53.201607,39.463127 51.601742,39.804436 51.620163,41.721470 
	C51.643700,44.170818 53.724003,43.855591 55.294903,43.835499 
	C57.165928,43.811569 59.598309,44.430279 60.018566,41.600376 
	C60.348766,39.376904 58.488182,39.508198 56.270584,39.390236 
M56.663284,57.332245 
	C56.979816,55.397610 57.356659,53.470097 57.586224,51.525200 
	C57.693371,50.617462 57.124615,49.904896 56.202301,49.768665 
	C55.228611,49.624840 54.296219,50.458538 54.485184,51.121208 
	C55.100048,53.277431 53.811371,55.956322 56.663284,57.332245 
z"/>
<path fill="#000000" opacity="1.000000" stroke="none" 
	d="
M45.910194,20.753969 
	C43.475040,21.029278 40.843220,24.327093 39.507534,21.159685 
	C38.126900,17.885674 42.048626,17.320419 44.067810,16.588892 
	C53.008949,13.349628 61.928513,13.438564 70.556427,17.856699 
	C71.865982,18.527288 73.514709,19.308197 72.662941,21.196941 
	C71.849686,23.000292 70.360641,22.590927 68.849426,21.879711 
	C61.502701,18.422159 54.002144,17.313112 45.910194,20.753969 
z"/>
<path fill="#000000" opacity="1.000000" stroke="none" 
	d="
M82.027374,66.037476 
	C80.751656,62.489391 83.022163,59.518524 84.016678,56.530579 
	C85.903519,50.861774 85.992912,45.538315 83.731827,40.070686 
	C83.164688,38.699257 82.902496,37.204540 82.443115,35.784943 
	C81.985832,34.371841 81.072746,32.683086 82.986992,31.908455 
	C85.168114,31.025827 85.761978,33.033268 86.417793,34.532890 
	C87.214966,36.355759 88.330963,38.151531 88.622444,40.063690 
	C89.855347,48.151443 90.473274,56.231560 86.123055,63.767452 
	C85.336952,65.129219 84.571136,66.355644 82.357620,66.041252 
	C81.991959,66.003044 82.027374,66.037476 82.027374,66.037476 
z"/>
<path fill="#000000" opacity="1.000000" stroke="none" 
	d="
M30.036283,65.972084 
	C27.842730,66.564514 26.543816,65.449425 25.701017,63.615715 
	C21.144562,53.702080 21.178499,43.776115 25.727100,33.873188 
	C26.277954,32.673901 26.966311,31.273333 28.620998,31.733561 
	C30.274227,32.193375 30.453093,33.611225 29.792160,34.955265 
	C25.035454,44.628296 26.102509,54.193089 30.165440,63.744385 
	C30.340050,64.154869 30.137062,64.725975 30.056496,65.612045 
	C30.003021,66.001831 30.036283,65.972084 30.036283,65.972084 
z"/>
<path fill="#000000" opacity="1.000000" stroke="none" 
	d="
M81.972366,65.988007 
	C84.423828,69.201042 85.366768,72.617210 82.098640,75.750153 
	C79.397339,78.339714 76.386177,77.793442 73.324600,75.269165 
	C73.024948,75.043510 72.998962,75.006317 72.983078,74.989388 
	C71.771469,68.465126 75.280670,64.629044 81.676788,65.936142 
	C82.027374,66.037476 81.991959,66.003044 81.972366,65.988007 
z"/>
<path fill="#000000" opacity="1.000000" stroke="none" 
	d="
M29.987675,66.018013 
	C34.200539,64.277672 37.039356,66.068031 38.958233,69.741066 
	C40.154930,72.031746 38.712227,73.926865 37.448853,75.648460 
	C35.924229,77.726059 33.625153,77.494492 31.530369,76.935089 
	C29.357584,76.354858 28.467045,74.523941 28.290125,72.387733 
	C28.118847,70.319649 29.001545,68.503838 29.929300,66.328918 
	C30.036283,65.972084 30.003021,66.001831 29.987675,66.018013 
z"/>
<path fill="#000000" opacity="1.000000" stroke="none" 
	d="
M83.354881,27.015623 
	C82.904892,30.429680 81.108940,32.297520 78.029991,31.973923 
	C74.773529,31.631664 73.331642,29.163315 73.037567,26.087042 
	C72.747597,23.053665 74.035187,20.791815 77.097122,20.244471 
	C82.108139,19.348709 82.606606,23.179684 83.354881,27.015623 
z"/>
</svg>