<svg version="1.1" id="Layer_1" xmlns="http://www.w3.org/2000/svg" xmlns:xlink="http://www.w3.org/1999/xlink" x="0px" y="0px"
	 width="100%" viewBox="0 0 83 87" enable-background="new 0 0 83 87" xml:space="preserve">
<path fill="#FBF8F6" opacity="1.000000" stroke="none" 
	d="
M47.000000,88.000000 
	C31.355667,88.000000 16.211336,88.000000 1.033502,88.000000 
	C1.033502,59.065071 1.033502,30.130096 1.033502,1.097559 
	C28.560577,1.097559 56.121616,1.097559 83.841324,1.097559 
	C83.841324,29.999306 83.841324,58.999573 83.841324,88.000000 
	C71.797462,88.000000 59.648731,88.000000 47.000000,88.000000 
M47.967339,59.411072 
	C46.622314,60.597431 45.277290,61.783791 44.326351,62.622555 
	C36.608742,60.662609 36.343773,50.661602 27.543123,48.775894 
	C30.152336,53.246765 29.000086,55.698612 25.869959,58.056023 
	C19.985432,62.487865 18.331556,68.846695 19.216917,75.869049 
	C19.380800,77.168900 20.720575,79.077538 21.868170,79.381432 
	C36.307358,83.205025 50.831257,83.179008 65.282928,79.443222 
	C66.472740,79.135651 67.960426,77.329063 68.106827,76.078201 
	C68.898369,69.314827 67.652718,62.994816 61.958542,58.545544 
	C58.798141,56.076099 56.962242,53.516029 58.708912,48.938622 
	C56.332481,50.022877 54.428509,51.293934 52.923317,52.931526 
	C51.251934,54.749920 49.944351,56.902702 47.967339,59.411072 
M27.663570,34.058128 
	C39.181438,30.631107 50.608059,31.359524 62.033558,34.630737 
	C63.902908,35.165951 66.081085,35.374275 67.941109,34.955173 
	C69.460075,34.612915 70.717262,33.108810 72.090515,32.119835 
	C71.130096,30.896002 70.412178,29.127457 69.155914,28.568176 
	C66.930771,27.577560 64.400642,27.015774 61.957245,26.838596 
	C59.110012,26.632135 57.464737,25.871422 56.801979,22.737076 
	C55.866261,18.311829 52.742065,16.041197 48.135361,16.043945 
	C44.812466,16.045927 41.431602,15.720156 38.187401,16.236601 
	C36.076401,16.572651 32.713593,17.840689 32.407745,19.237682 
	C30.870966,26.257135 25.599787,27.076616 20.042927,27.881422 
	C19.237225,27.998112 18.255091,28.165161 17.731499,28.687042 
	C16.755476,29.659863 15.290185,31.032644 15.446260,32.013332 
	C15.621095,33.111889 17.309713,34.682461 18.442707,34.774162 
	C21.201773,34.997471 24.020445,34.484333 27.663570,34.058128 
M40.466145,43.145123 
	C41.226940,41.153488 41.987732,39.161854 42.862892,36.870831 
	C37.020172,36.870831 32.214161,36.870831 27.295048,36.870831 
	C29.335157,44.561375 33.061417,46.424812 40.466145,43.145123 
M56.088692,36.358704 
	C52.513721,36.358704 48.938755,36.358704 45.305336,36.358704 
	C44.466545,41.366653 46.352478,43.966595 50.599815,44.798859 
	C54.636444,45.589840 58.958317,42.847214 59.557217,38.945332 
	C59.666485,38.233444 57.873531,37.229580 56.088692,36.358704 
z"/>
<path fill="#AE2B2B" opacity="1.000000" stroke="none" 
	d="
M48.222855,59.160484 
	C49.944351,56.902702 51.251934,54.749920 52.923317,52.931526 
	C54.428509,51.293934 56.332481,50.022877 58.708912,48.938622 
	C56.962242,53.516029 58.798141,56.076099 61.958542,58.545544 
	C67.652718,62.994816 68.898369,69.314827 68.106827,76.078201 
	C67.960426,77.329063 66.472740,79.135651 65.282928,79.443222 
	C50.831257,83.179008 36.307358,83.205025 21.868170,79.381432 
	C20.720575,79.077538 19.380800,77.168900 19.216917,75.869049 
	C18.331556,68.846695 19.985432,62.487865 25.869959,58.056023 
	C29.000086,55.698612 30.152336,53.246765 27.543123,48.775894 
	C36.343773,50.661602 36.608742,60.662609 44.326351,62.622555 
	C45.277290,61.783791 46.622314,60.597431 48.222855,59.160484 
z"/>
<path fill="#AF302F" opacity="1.000000" stroke="none" 
	d="
M27.239342,34.162956 
	C24.020445,34.484333 21.201773,34.997471 18.442707,34.774162 
	C17.309713,34.682461 15.621095,33.111889 15.446260,32.013332 
	C15.290185,31.032644 16.755476,29.659863 17.731499,28.687042 
	C18.255091,28.165161 19.237225,27.998112 20.042927,27.881422 
	C25.599787,27.076616 30.870966,26.257135 32.407745,19.237682 
	C32.713593,17.840689 36.076401,16.572651 38.187401,16.236601 
	C41.431602,15.720156 44.812466,16.045927 48.135361,16.043945 
	C52.742065,16.041197 55.866261,18.311829 56.801979,22.737076 
	C57.464737,25.871422 59.110012,26.632135 61.957245,26.838596 
	C64.400642,27.015774 66.930771,27.577560 69.155914,28.568176 
	C70.412178,29.127457 71.130096,30.896002 72.090515,32.119835 
	C70.717262,33.108810 69.460075,34.612915 67.941109,34.955173 
	C66.081085,35.374275 63.902908,35.165951 62.033558,34.630737 
	C50.608059,31.359524 39.181438,30.631107 27.239342,34.162956 
z"/>
<path fill="#B64140" opacity="1.000000" stroke="none" 
	d="
M40.161873,43.372570 
	C33.061417,46.424812 29.335157,44.561375 27.295048,36.870831 
	C32.214161,36.870831 37.020172,36.870831 42.862892,36.870831 
	C41.987732,39.161854 41.226940,41.153488 40.161873,43.372570 
z"/>
<path fill="#B54040" opacity="1.000000" stroke="none" 
	d="
M56.523689,36.359604 
	C57.873531,37.229580 59.666485,38.233444 59.557217,38.945332 
	C58.958317,42.847214 54.636444,45.589840 50.599815,44.798859 
	C46.352478,43.966595 44.466545,41.366653 45.305336,36.358704 
	C48.938755,36.358704 52.513721,36.358704 56.523689,36.359604 
z"/>
</svg>