<svg version="1.1" id="Layer_1" xmlns="http://www.w3.org/2000/svg" xmlns:xlink="http://www.w3.org/1999/xlink" x="0px" y="0px"
	 width="100%" viewBox="0 0 92 91" enable-background="new 0 0 92 91" xml:space="preserve">
<path fill="#F9F9F8" opacity="1.000000" stroke="none" 
	d="
M53.000000,92.000000 
	C35.333336,92.000000 18.166674,92.000000 1.000007,92.000000 
	C1.000005,61.666676 1.000005,31.333351 1.000002,1.000019 
	C31.666655,1.000013 62.333309,1.000013 92.999969,1.000006 
	C92.999985,31.333313 92.999985,61.666626 92.999992,91.999969 
	C79.833336,92.000000 66.666664,92.000000 53.000000,92.000000 
M64.221161,79.410637 
	C67.372414,78.386116 65.945190,76.770271 64.626999,75.400154 
	C62.459503,73.147270 61.002319,70.989532 63.807369,68.162643 
	C66.747940,65.199173 69.053238,66.492134 71.438881,68.945038 
	C71.993217,69.515007 73.122047,69.526230 74.041405,69.811584 
	C74.976402,63.330475 71.430916,59.224766 65.014000,57.616562 
	C61.702076,56.786530 58.459961,54.894375 55.716415,52.790752 
	C52.710125,50.485668 50.428467,47.261185 47.624008,44.660603 
	C44.218063,41.502258 42.035126,38.223866 41.825905,33.133854 
	C41.542927,26.249489 35.037010,22.409576 29.413626,25.013466 
	C29.769085,28.375122 36.018162,30.291422 31.840267,34.846161 
	C27.712427,39.346336 25.264582,34.002628 21.827913,32.978497 
	C21.461346,33.956005 20.940231,34.683086 20.961769,35.393719 
	C21.124353,40.758175 25.177324,44.582935 31.497786,45.460777 
	C36.078220,46.096947 52.321770,61.011642 53.202503,65.420990 
	C53.331665,66.067635 53.291164,66.747978 53.331512,67.412582 
	C53.782669,74.844490 56.204197,77.710709 64.221161,79.410637 
M68.275322,29.239174 
	C66.686325,29.294863 64.841400,28.848925 63.558067,29.503698 
	C60.194462,31.219849 53.312183,28.665562 52.803638,24.873388 
	C52.252945,20.766895 49.651146,20.670031 46.683411,21.013161 
	C42.939896,21.445988 43.587654,24.411989 43.811741,26.789082 
	C44.058212,29.403576 45.090652,31.966093 45.164631,34.568764 
	C45.245159,37.401707 46.550304,38.188019 49.053501,38.634983 
	C56.286705,39.926525 59.043480,42.996559 60.556316,50.366623 
	C60.840618,51.751675 61.833191,53.638966 62.968533,54.076817 
	C66.025818,55.255882 69.322662,56.265717 72.552971,56.359577 
	C74.248566,56.408848 76.958672,54.744949 77.510704,53.233715 
	C78.357040,50.916847 78.343666,47.927238 74.409943,47.222687 
	C70.491356,46.520844 67.550583,39.446499 69.879776,36.197712 
	C71.872635,33.418056 70.831253,31.622957 68.275322,29.239174 
M51.262966,74.215660 
	C50.885338,72.267525 50.832180,70.171066 50.030315,68.416847 
	C49.354446,66.938271 47.964630,64.985939 46.622253,64.746002 
	C39.552658,63.482395 35.894398,59.373932 34.813332,52.453636 
	C34.617386,51.199322 33.754395,49.383453 32.773830,49.039322 
	C29.522161,47.898163 26.100069,46.894123 22.693928,46.698666 
	C21.148941,46.610012 18.236309,48.456257 18.155361,49.583553 
	C18.013006,51.565960 19.035297,54.825562 20.514217,55.510117 
	C25.210108,57.683735 27.487659,62.995499 25.343658,67.636604 
	C24.742935,68.936989 25.411604,71.414993 26.380888,72.671989 
	C27.235283,73.779999 29.636133,74.799240 30.810427,74.370079 
	C36.585045,72.259651 40.919819,73.993790 43.102406,79.511032 
	C43.539249,80.615295 45.041950,81.786263 46.230759,82.018837 
	C50.976036,82.947189 52.191536,81.243263 51.262966,74.215660 
z"/>
<path fill="#49648A" opacity="1.000000" stroke="none" 
	d="
M63.858269,79.427261 
	C56.204197,77.710709 53.782669,74.844490 53.331512,67.412582 
	C53.291164,66.747978 53.331665,66.067635 53.202503,65.420990 
	C52.321770,61.011642 36.078220,46.096947 31.497786,45.460777 
	C25.177324,44.582935 21.124353,40.758175 20.961769,35.393719 
	C20.940231,34.683086 21.461346,33.956005 21.827913,32.978497 
	C25.264582,34.002628 27.712427,39.346336 31.840267,34.846161 
	C36.018162,30.291422 29.769085,28.375122 29.413626,25.013466 
	C35.037010,22.409576 41.542927,26.249489 41.825905,33.133854 
	C42.035126,38.223866 44.218063,41.502258 47.624008,44.660603 
	C50.428467,47.261185 52.710125,50.485668 55.716415,52.790752 
	C58.459961,54.894375 61.702076,56.786530 65.014000,57.616562 
	C71.430916,59.224766 74.976402,63.330475 74.041405,69.811584 
	C73.122047,69.526230 71.993217,69.515007 71.438881,68.945038 
	C69.053238,66.492134 66.747940,65.199173 63.807369,68.162643 
	C61.002319,70.989532 62.459503,73.147270 64.626999,75.400154 
	C65.945190,76.770271 67.372414,78.386116 63.858269,79.427261 
z"/>
<path fill="#476289" opacity="1.000000" stroke="none" 
	d="
M68.548752,29.494328 
	C70.831253,31.622957 71.872635,33.418056 69.879776,36.197712 
	C67.550583,39.446499 70.491356,46.520844 74.409943,47.222687 
	C78.343666,47.927238 78.357040,50.916847 77.510704,53.233715 
	C76.958672,54.744949 74.248566,56.408848 72.552971,56.359577 
	C69.322662,56.265717 66.025818,55.255882 62.968533,54.076817 
	C61.833191,53.638966 60.840618,51.751675 60.556316,50.366623 
	C59.043480,42.996559 56.286705,39.926525 49.053501,38.634983 
	C46.550304,38.188019 45.245159,37.401707 45.164631,34.568764 
	C45.090652,31.966093 44.058212,29.403576 43.811741,26.789082 
	C43.587654,24.411989 42.939896,21.445988 46.683411,21.013161 
	C49.651146,20.670031 52.252945,20.766895 52.803638,24.873388 
	C53.312183,28.665562 60.194462,31.219849 63.558067,29.503698 
	C64.841400,28.848925 66.686325,29.294863 68.548752,29.494328 
z"/>
<path fill="#466289" opacity="1.000000" stroke="none" 
	d="
M51.429253,74.608498 
	C52.191536,81.243263 50.976036,82.947189 46.230759,82.018837 
	C45.041950,81.786263 43.539249,80.615295 43.102406,79.511032 
	C40.919819,73.993790 36.585045,72.259651 30.810427,74.370079 
	C29.636133,74.799240 27.235283,73.779999 26.380888,72.671989 
	C25.411604,71.414993 24.742935,68.936989 25.343658,67.636604 
	C27.487659,62.995499 25.210108,57.683735 20.514217,55.510117 
	C19.035297,54.825562 18.013006,51.565960 18.155361,49.583553 
	C18.236309,48.456257 21.148941,46.610012 22.693928,46.698666 
	C26.100069,46.894123 29.522161,47.898163 32.773830,49.039322 
	C33.754395,49.383453 34.617386,51.199322 34.813332,52.453636 
	C35.894398,59.373932 39.552658,63.482395 46.622253,64.746002 
	C47.964630,64.985939 49.354446,66.938271 50.030315,68.416847 
	C50.832180,70.171066 50.885338,72.267525 51.429253,74.608498 
z"/>
</svg>